<?xml version="1.0" encoding="utf-8"?>
<!-- Generator: Adobe Illustrator 24.0.1, SVG Export Plug-In . SVG Version: 6.00 Build 0)  -->
<svg version="1.1" id="Calque_1" xmlns="http://www.w3.org/2000/svg" xmlns:xlink="http://www.w3.org/1999/xlink" x="0px" y="0px"
	 viewBox="0 0 1561.9 500" style="enable-background:new 0 0 1561.9 500;" xml:space="preserve">
<style type="text/css">
	.st0{fill-rule:evenodd;clip-rule:evenodd;fill:#2D509F;}
	.st1{fill-rule:evenodd;clip-rule:evenodd;fill:#D7712C;}
</style>
<g>
	<path class="st0" d="M1546.8,84.8c-12.4-0.5-24.9,3.2-33.9,8.2c-1.3,6.8-11.6,5-17.6,7.5c-12,1.2-21.9,6.6-33.9,6.5
		c-3.9,4.3-10.3,3.8-15.4,5.8c-7.8,7.2-21,1.5-27.9,8.3c-13.3,2-26.2,4.5-37.8,10.3c-2-0.3-3.6-1.9-3.8-3.9c-6-0.5-9.9,3.8-15,5.4
		c0.4-0.9-0.4-1.3-0.4-1.7c-3.9,1.3-7.3,4.6-11.6,3.3l-2.6,0v-0.9c-2.6-1.7-6-0.5-7.7,2.1c-1.3-0.9-0.4-5.1-3.8-4.7
		c-3.1,6-8.2,5.9-10,11.5l0.8,0.9l-3.4,0c0-1.3-1.3-2.2-2.1-3c-3.9,0.8-7.3,3.4-10.7,4.6c-1.7,0.8,0.4,1.7-0.9,3l-0.9,0
		c-1.7-2.2,4.8-6-1.2-6c-4.3,3.4-1.3,6.4-7.3,6.8c-0.4,0.4-3.4-0.5-4.3,2.1c-0.4,0.9,0,1.3,0.4,1.7c-3-0.5-7.7-0.5-7.8,3.8l0,3
		c-0.4,0-0.9,0.4-1.3,0.8c-0.8-2.2-0.8-5.6-3.8-6.5c-3,1.2-5.5,3.4-6.9,6.4c-2.2-0.5,0.5-4.7-2.5-4.7c-3.9,1.7,0.8,3.9-1.3,6
		c-3.9,1.7-9.1,6.8-12.4,1.6c-2.6,2.1-4.7-0.5-6.8-0.9c-0.4-3,2.2-2.6,3-5.1l-2.5-2.6c-3.1,12-19.7,4.5-19.4,17.8
		c-3.4,0.4-2.1-6.4-6.8-3.9c-0.4,1.3-2.2,3.8-4.7,3l-2.1,0c0-0.9,0-2.2,0.9-2.6c-0.8-1.3-2.6-0.5-3.9-0.5c-1.8,7.3-12,4.2-16.4,9.7
		c-2.2,6.4,4.6,9.5-3.1,12.4c-3,0.8-4.7-1.3-6.4-3c-2.6,6-7.3,0.8-11.6-0.1v-0.9c-1.3-0.9-3.9,0.8-6,1.2c-0.5,3.4-1.8,4.7-5.6,3.8
		c0.4-0.4-0.4-0.9-0.4-1.3c-6.5,2.9-12.1,9.7-21.1,7.5c-0.9,2.1-4.3,1.2-3.9,4.7c1.3,1.3,3.9,0.5,5.6,0.5l-0.1,7.3
		c-1.7,0-2.2,1.3-3.4,2.1c0,1.3,1.7,2.2,0,3l-2.1,0c0.4-0.9-0.8-1.7-1.7-1.3c-1.7-0.9-3.4,0.4-3.9,2.1l1.7,1.7
		c-0.4,0.4-2.2,0.8-1.7,2.1c-0.4,0-1.7,0-2.1-0.9c0.4-1.3,3-3.4,0-4.7c-3.9,3.4-8.2,5.5-10.8,10.2c-4.7,0-9.9,6.3-13.3,2.9l0-2.1
		l4.7-0.8c1.7-2.6,0.9-7.7-2.1-7.7c-1.3,0-2.6-0.9-3.4,0.8c0,3.4-6,2.5-9,3.8c-3,3.8-10.3,2-14.2,5.9l6.4,5.6c0.4-0.4-4.3,3-1.8,5.1
		l0.9,0.9c-0.4,1.3-2.2,0.4-3,0.8l0-1.7c-8.1-0.1-9.1,10.2-18.1,10.5c0-0.9,0.5-3-1.3-3l-2.6,0l-0.5,5.6c-4.3-3.5-6.9,2.9-11.6,0.7
		c-3,5.1-6.5,5.5-11.2,9.8l0.8,0.9c-7.3,2.5-13.3,7.6-21.5,9.6c-4.8,8.1-17.2,8.8-21.1,16.9c-5.6-0.9-6.9,3.8-11.6,5
		c-5.2,4.7-12.9,7.1-18.5,9.2c-7.6-9.5-12.2-18.1-18.1-28.9c2.2-0.8-0.8-2.2-0.8-3c1.7,0,2.2-2.6,3-3c16.4-9.2,30.2-18.5,48.2-24.8
		c7.5-6.5,16.5-11,26.3-13c0,0.9,0.4,1.3,0.8,1.7c1.3,0,3-0.4,3.9-1.7c0.9-1.7-2.5-2.6,0-3.9c1.3,0.9,1.7,3,3.8,2.2
		c1.7-2.6,1.8-6.8,6.9-5.9c0.9-0.4,0.9-1.7,0.9-2.1c6.4,4.8,8.2-5.5,9.9-3.8c-0.4,0.4-1.7,0.8-1.3,2.1c3.4,1.8,6.9-0.8,9.9-2
		c1.7-3.4,6.9-4.2,9.5-7.2c3,3,6.5-2.9,9,0.1c1.7,0.4,3,0,3.9-1.2c-0.9-0.9-1.3-3.9,0.9-3.8c6,3,8.7-9.8,12.4,1
		c0.9-3.4,6-1.7,6.9-5.5c7.2,4.8,5.3-12.8,10.7-2c3,0,3-3,3.9-4.7l-0.9-0.9c0.4-0.8,1.7-0.8,2.6-0.8c-0.9,1.3,0.8,2.2,1.3,3
		c3.5-3.8,5.6-7.7,11.2-8.9c6.9-1.6,10.8-6.8,18.5-6.7c0.9-0.8,0.9-2.1,2.2-1.7l0.8,3.9c3-0.8,6.4-1.2,9.5-2.9l0-3.9
		c3-3.4,9.8,3.9,9-3.8c3.4-0.4,6.8,0.1,9.5-2.5l2.1,2.6c2.6-7.7,10.3-8,17.2-10.5c9,2.7,16.8-5.4,25.3-1.5c1.3-0.8,0.9-2.6,0.9-3.8
		c-2.6,0,1.8-3.4,1.8-5.6l3.9-2.1c2.1,4.7,6.8,0.1,10.7,4c2.6,0.5,4.7-0.4,6.9-2.1c-2.1-3-3.8-1.3-6.8-1.8c1-10.7,14.2-1.6,19.3-7.5
		c6.4,6.1,6.1-8.5,12.4-2c5.6,0.9,1.3-5.1,6.9-3.8c3.1-6,15.4,2.3,16.3-7.1c5.1,2.6,11.6-1.6,15.4-2c0,2.6-5.2,0.8-3.5,4.7
		c1.7,1.3,4.3,0.5,6.4,1.3c2.2-2.1-1.7-4.3,2.2-6l-0.8-0.9c2.1,0.9,2.2-1.3,3.4-2.1c5.6-2.9,14.6-3.7,20.6-5.4
		c11.5,4.8,9.1-8.9,20.2-4.9c6.9-3.4,15.4-2.9,22.3-6.2c2.1,3.9,5.6-0.8,6.9-1.2c12.4-3.3,26.1-4,38.6-6.9l0.9-2.1
		c3.4,0.5,6.4,2.2,10.3,1.8c3.5-11.5,12,2.7,16.8-6.3c25.3-2.3,49.3-6.8,75.9-7C1540.4,82.2,1546.8,81,1546.8,84.8L1546.8,84.8z"/>
	<path class="st0" d="M1225.8,152c0,1.3-0.5,3.9-2.6,3l0-3L1225.8,152L1225.8,152z M1239.3,174.4c-1.3,0-0.4-2.6-0.8-3.9
		C1244.5,166.8,1238.4,171.9,1239.3,174.4z M1218.3,176.4c-1.3,0.4-3,3-4.3,0.8C1214.4,176.8,1217.4,172.9,1218.3,176.4z
		 M1178.2,197l-1.7,0l0.9-6C1178.7,193.1,1177.8,194,1178.2,197L1178.2,197z M1171.8,199.9c-0.9,3-3.9,3.8-6,5.5
		c-2.1-0.9-3,0.8-4.7,1.2c-0.9-0.4-1.3-1.7-2.1-1.3C1164,205,1166.7,196,1171.8,199.9L1171.8,199.9z M1106.8,230.1
		c0,0.9,0.8,2.6-0.9,3c-0.4-1.3-0.8-3.9-3.8-3C1103,228.8,1107.3,225.9,1106.8,230.1z"/>
	<path class="st1" d="M1397.9,54.1c10.9,0,19.7-8.8,19.7-19.6s-8.8-19.7-19.6-19.7c0,0,0,0-0.1,0c-10.9,0-19.7,8.8-19.7,19.7
		C1378.3,45.3,1387,54,1397.9,54.1z"/>
	<path class="st0" d="M1451.3,128.9l-253.7,255.8l29.9-109.5l-26.7,14.3l-34.6,128.9l-10.8,39.3l28.7-28.9L1507,102.5L1451.3,128.9
		L1451.3,128.9z M38.5,184.7h120.2c72.2,0,131.7,58,131.7,132.5c0,74.5-59.8,132.5-131.7,132.5H38.5L38.5,184.7L38.5,184.7z
		 M106.1,382.7h34c43.4,0,80.4-20.1,80.4-66.4c0-42.5-33-66.4-79.7-66.4h-34.7L106.1,382.7L106.1,382.7z M760.7,403.6L744,449.6H676
		l96.7-264.9H840l97.7,264.9h-73.8l-15.6-46.1H760.7L760.7,403.6z M805.1,282.9h-0.5l-22.2,62.3H827L805.1,282.9z M627.4,305.1h-133
		v59.6h53.2c-14,17.5-35.3,27.8-57.7,27.7c-40.9,0-74.1-33.1-74.1-74c0-40.9,33.1-74.1,74-74.1c19.7,0,38.5,7.8,52.4,21.7l45.3-45.3
		c-25.9-25.9-61-40.5-97.7-40.5c-76.3,0-138.1,61.8-138.1,138.1s61.8,138.1,138.1,138.1S628,394.7,628,318.5
		C628,314,627.8,309.5,627.4,305.1L627.4,305.1z"/>
	<path class="st1" d="M2465,290.6v25.2H1700v-25.2H2465z"/>
	<path class="st0" d="M1742.4,342.5c11.6,0,15.3,0.3,21.4,2c12.4,3.3,20.9,13.1,20.9,23.9c0,8.7-5.6,16.6-14.8,20.9
		c15.6,4.6,23.2,13.3,23.2,27c0,13.1-7.9,23.5-21.6,27.9c-5.1,1.7-10.9,2.4-20.6,2.4l-50.4-0.2v-104L1742.4,342.5L1742.4,342.5
		L1742.4,342.5z M1728.4,383.8h10.3c13.3,0,18.5-3.2,18.5-11.4c0-7.9-5.3-11.3-18-11.3h-10.8L1728.4,383.8L1728.4,383.8z
		 M1728.4,427.6h13.5c17.2,0,23-3.2,23-12.5c0-9.6-5.8-12.5-24.3-12.5h-12.2V427.6L1728.4,427.6z M1861.4,342.5
		c15.9,0,21.7,1.1,28.8,5.2c8.7,5.3,14.3,14.9,14.3,24.7c0,7.6-3.4,14.9-9.3,20c-2.9,2.3-4.7,3.3-9.5,5.5
		c5.8,2.7,10.6,8.7,15.8,19.5l4.4,8.8l2.9,5.8l3.4,7l2.9,5.8l0.8,1.7h-30.1l-0.6-1.1l-2.1-4.3l-2.1-4.7l-3.2-6.7l-4.2-8.8
		c-4.2-9-9.5-14.8-14.6-16.2c-2.4-0.6-3.1-0.6-7.9-0.6h-4v42.4h-27.7v-104L1861.4,342.5L1861.4,342.5L1861.4,342.5z M1847,385.2
		h11.4l2.1-0.2l3.4-0.2c7.2-0.2,12.2-4.9,12.2-11.6c0-7.9-5.1-11.9-15.3-11.9H1847V385.2z M2020.1,446.5h-80.9v-104h79.8v19.4h-52.1
		v21h49.7v19.5h-49.7v25h53.2L2020.1,446.5L2020.1,446.5z M2129.6,370.6l-1.9-0.9c-13.2-6.3-23.8-9.1-33.4-9.1
		c-10,0-16.4,3.3-16.4,8.4c0,4.4,5.6,8.2,17.9,12.3l8.7,3c21,7.2,30.2,17.1,30.2,32.8c0,18.5-17.2,30.8-42.9,30.8
		c-9.3,0-17.8-1.7-28.9-5.6c-6.4-2.5-6.9-2.6-9.8-4.4v-22.4c8.1,4.7,12.2,7,17.7,9c6.4,2.6,13.3,4,20.2,4c10.8,0,16.6-3.2,16.6-9.5
		c0-5.2-3.7-8.1-14.8-11.8l-6-2c-8.5-2.9-13-4.7-18.2-7.5c-3.8-1.9-7.3-4.5-10.3-7.6c-4.5-4.9-7.3-12-7.3-19.4
		c0-17.8,16.4-29.6,41.5-29.6c12.2,0,23.2,2.3,37.1,8.1L2129.6,370.6L2129.6,370.6L2129.6,370.6z M2254.3,362h-39.6v84.5h-27.8V362
		h-39.7v-19.5h107.1V362z M1700,59.9h87.8c79.6,0,140.7,30.4,140.7,106.4c0,61.4-49.7,100.3-119.3,100.3H1700V59.9z M1777.1,204.6
		h18.2c35.5,0,58.4-11.5,58.4-38.6c0-29.1-19.5-41.4-58.4-41.4h-18.2V204.6L1777.1,204.6z M2159.9,139.5
		c-15.5-11.2-33.5-16.6-55.3-16.6c-28.9,0-52.5,17.8-52.5,40.3c0,22.7,25,40.3,53.9,40.3c22.2,0,38.4-3.1,53.9-14.9v73
		c-15.5,5.7-52.9,8.2-70.1,8.2c-75.8,0-135-45.8-135-104.7c0-60.3,61-108.6,138.9-108.6c21.8,0,45.8,3,66.2,8.5L2159.9,139.5
		L2159.9,139.5L2159.9,139.5z M2373,261.2L2288.1,158v108.6h-89.2V59.9h89.2l84.9,99.2V261.2L2373,261.2z M2373.2,70.8
		c6.6-2.2,14.8-3.3,23.1-3.3c8.4,0,16.3,1.1,23,3.3c7.5,2.4,16.3,3.7,25.6,3.7c7.1,0,13.9-0.8,20.1-2.2v-8.9
		c-6.6,1.7-13.3,2.6-20.1,2.5c-7.8,0.1-15.5-1-23-3.3c-7.5-2.4-16.4-3.7-25.6-3.7c-8.4,0-16.1,1.1-23.1,3.1V70.8z M2373.2,94.6
		c6.6-2.2,14.8-3.3,23.1-3.3c8.4,0,16.3,1.1,23,3.3c7.5,2.4,16.3,3.7,25.6,3.7c7.1,0,13.9-0.8,20.1-2.2v-8.9
		c-6.6,1.7-13.3,2.6-20.1,2.5c-7.8,0.1-15.5-1-23-3.3c-7.5-2.4-16.4-3.7-25.6-3.7c-8.4,0-16.1,1.1-23.1,3.1V94.6z M2373.2,118.4
		c6.6-2.2,14.8-3.3,23.1-3.3c8.4,0,16.3,1.1,23,3.3c7.5,2.4,16.3,3.7,25.6,3.7c7.1,0,13.9-0.8,20.1-2.2V111
		c-6.6,1.7-13.3,2.6-20.1,2.5c-7.8,0.1-15.5-1-23-3.3c-7.5-2.4-16.4-3.7-25.6-3.7c-8.4,0-16.1,1.1-23.1,3.1V118.4L2373.2,118.4z
		 M2373.2,142.2c6.6-2.2,14.8-3.3,23.1-3.3c8.4,0,16.3,1.1,23,3.3c7.5,2.4,16.3,3.7,25.6,3.7c7.1,0,13.9-0.8,20.1-2.2v-8.9
		c-6.6,1.7-13.3,2.6-20.1,2.5c-7.8,0.1-15.5-1-23-3.3c-7.5-2.4-16.4-3.7-25.6-3.7c-8.4,0-16.1,1.1-23.1,3.1V142.2z M2373.2,166
		c6.6-2.2,14.8-3.3,23.1-3.3c8.4,0,16.3,1.1,23,3.3c7.5,2.4,16.3,3.7,25.6,3.7c7.1,0,13.9-0.8,20.1-2.2v-8.9
		c-6.6,1.7-13.3,2.6-20.1,2.5c-7.8,0.1-15.5-1-23-3.3c-7.5-2.4-16.4-3.7-25.6-3.7c-8.4,0-16.1,1.1-23.1,3.1V166z M2373.2,189.8
		c6.6-2.2,14.8-3.3,23.1-3.3c8.4,0,16.3,1.1,23,3.3c7.5,2.4,16.3,3.7,25.6,3.7c7.1,0,13.9-0.8,20.1-2.2v-8.9
		c-6.6,1.7-13.3,2.6-20.1,2.5c-7.8,0.1-15.5-1-23-3.3c-8.3-2.6-16.9-3.8-25.6-3.7c-8.4,0-16.1,1.1-23.1,3.1V189.8z M2373.2,213.6
		c6.6-2.2,14.8-3.3,23.1-3.3c8.4,0,16.3,1.1,23,3.3c7.5,2.4,16.3,3.7,25.6,3.7c6.8,0,13.5-0.7,20.1-2.2v-8.9
		c-6.6,1.7-13.3,2.6-20.1,2.5c-7.8,0.1-15.5-1-23-3.3c-7.5-2.4-16.4-3.7-25.6-3.7c-8.4,0-16.1,1.1-23.1,3.1V213.6L2373.2,213.6z
		 M2373.2,237.4c6.6-2.2,14.8-3.3,23.1-3.3c8.4,0,16.3,1.2,23,3.3c7.5,2.4,16.3,3.7,25.6,3.7c7.1,0,13.9-0.8,20.1-2.2V230
		c-6.6,1.7-13.3,2.6-20.1,2.5c-7.8,0.1-15.5-1-23-3.3c-7.5-2.4-16.4-3.7-25.6-3.7c-8.4,0-16.1,1.1-23.1,3.1V237.4z M2373.2,261.2
		c6.6-2.2,14.8-3.3,23.1-3.3c8.4,0,16.3,1.1,23,3.3c7.5,2.4,16.3,3.7,25.6,3.7c7.1,0,13.9-0.8,20.1-2.2v-8.9
		c-6.6,1.7-13.3,2.5-20.1,2.5c-7.8,0.1-15.5-1-23-3.3c-7.5-2.5-16.4-3.7-25.6-3.7c-8.4,0-16.1,1.1-23.1,3.1V261.2z"/>
</g>
</svg>
