<svg id="Calque_1" data-name="Calque 1" xmlns="http://www.w3.org/2000/svg" viewBox="0 0 1561.937 500.0316"><defs><style>.cls-1{fill:#2d509f;}.cls-1,.cls-2{fill-rule:evenodd;}.cls-2{fill:#d7712c;}</style></defs><title>Plan de travail 1dga</title><path class="cls-1" d="M1545.5236,94.8751a66.2534,66.2534,0,0,0-33.9159,8.2359c-1.3488,6.835-11.6079,5.0322-17.626,7.5484-11.9841,1.1672-21.893,6.64-33.89,6.5237-3.8781,4.2542-10.311,3.7613-15.4471,5.8494-7.8077,7.2111-21.024,1.5174-27.9368,8.3006-13.2681,2.01-26.173,4.4616-37.768,10.3369a4.5136,4.5136,0,0,1-3.8261-3.891c-6.0049-.48-9.8829,3.7612-15.0449,5.4213.4279-.856-.4021-1.2969-.4021-1.725-3.878,1.2581-7.315,4.6432-11.6079,3.32l-2.555-.0259v-.856c-2.555-1.738-5.979-.4929-7.73,2.0752-1.271-.869-.3761-5.1361-3.8-4.7469-3.0609,5.9661-8.21,5.9142-9.9608,11.4653l.83.869-3.424-.0389c0-1.284-1.271-2.153-2.1271-3.009-3.8519.8171-7.2889,3.3592-10.739,4.6043-1.725.83.4021,1.7121-.8819,2.9831l-.856-.013c-1.699-2.153,4.76-5.9531-1.2192-6.0049-4.3319,3.3851-1.3488,6.4071-7.3409,6.77-.428.428-3.424-.454-4.306,2.1012a1.2946,1.2946,0,0,0,.402,1.725c-2.9831-.454-7.704-.5059-7.7559,3.7742l-.0259,2.996c-.402,0-.856.415-1.297.8431-.83-2.153-.7911-5.577-3.8-6.4719a12.5806,12.5806,0,0,0-6.8869,6.3551c-2.153-.454.454-4.708-2.5291-4.7339-3.878,1.6731.8041,3.8649-1.3488,5.979-3.878,1.6731-9.0659,6.7573-12.4251,1.5953-2.5939,2.1141-4.708-.48-6.848-.9208-.402-3.009,2.166-2.555,3.0479-5.11l-2.542-2.5939c-3.1128,11.9581-19.74,4.5265-19.4417,17.8075-3.437.3891-2.0752-6.446-6.8092-3.9169-.4409,1.284-2.1789,3.8391-4.7339,2.9571l-2.14-.013c0-.856.0129-2.1529.8819-2.5679-.8431-1.297-2.568-.454-3.852-.467-1.7768,7.263-12.0359,4.1633-16.3678,9.6884-2.1919,6.4071,4.6172,9.468-3.1127,12.3862-2.9961.83-4.6951-1.3229-6.3941-3.0479-2.62,5.9661-7.2889.7911-11.556-.1168v-.856c-1.284-.856-3.865.83-6.005,1.2321-.4669,3.4241-1.7639,4.6951-5.6029,3.8.4279-.428-.428-.8561-.415-1.284-6.459,2.9441-12.0878,9.7273-21.0629,7.51-.869,2.1271-4.293,1.2451-3.904,4.6691,1.2711,1.297,3.852.467,5.5641.48l-.0648,7.276c-1.7121-.0129-2.153,1.2711-3.45,2.1141,0,1.284,1.699,2.153-.0259,2.9961l-2.14-.0259c.4409-.8561-.8431-1.7251-1.699-1.31-1.699-.869-3.424.4021-3.878,2.1141l1.699,1.7251c-.441.415-2.153.83-1.738,2.127-.428,0-1.7121-.0129-2.14-.8819.4409-1.284,3.0219-3.3981.0388-4.708-3.8909,3.3851-8.1838,5.4861-10.8038,10.1813-4.7209-.0389-9.9218,6.3292-13.307,2.8793l.026-2.14,4.7209-.8171c1.738-2.555.9338-7.7041-2.0752-7.73-1.284-.013-2.555-.8819-3.437.8171-.0388,3.4241-6.0179,2.5162-9.0269,3.7743-3.0349,3.826-10.298,2.0491-14.1889,5.8623l6.3681,5.6289c.4279-.428-4.319,2.957-1.7639,5.123l.856.856c-.4409,1.297-2.153.4021-3.009.83l.0129-1.725c-8.1449-.0778-9.0917,10.2072-18.0927,10.5314,0-.856.4669-2.9831-1.2581-3.009l-2.568-.0259-.48,5.577c-4.2541-3.4759-6.874,2.9441-11.569.7392-3.0479,5.1231-6.4849,5.5252-11.2318,9.7533l.8431.856c-7.302,2.5032-13.3459,7.6-21.5039,9.65-4.7858,8.08-17.2109,8.8194-21.1406,16.9255-5.5641-.9079-6.887,3.8-11.621,5.0453-5.175,4.6561-12.9179,7.1463-18.4949,9.2474-7.6132-9.4939-12.2435-18.1059-18.1447-28.8837,2.1529-.83-.83-2.153-.8172-2.9831,1.7121,0,2.166-2.555,3.022-2.9831,16.3679-9.2474,30.1547-18.5467,48.1957-24.7982a58.261,58.261,0,0,1,26.2508-13.0216,2.2061,2.2061,0,0,0,.83,1.7121,4.6547,4.6547,0,0,0,3.878-1.6731c.869-1.699-2.542-2.5939.026-3.852,1.2839.869,1.686,3.009,3.826,2.1789,1.738-2.555,1.7769-6.835,6.9129-5.9272.856-.415.8689-1.712.8819-2.14,6.3811,4.7728,8.1839-5.4862,9.883-3.7612-.4409.4279-1.725.843-1.31,2.127,3.411,1.751,6.861-.7911,9.87-2.0492,1.738-3.411,6.8869-4.2151,9.4809-7.1852,2.97,3.022,6.459-2.9441,8.9881.0778a3.259,3.259,0,0,0,3.8649-1.2451c-.856-.869-1.2581-3.865.8949-3.8391,5.9661,3.0479,8.6509-9.7662,12.4121.9727.8949-3.424,6.0179-1.66,6.9129-5.4992,7.2371,4.7859,5.2527-12.8012,10.726-2.0492,2.996.0259,3.022-2.97,3.9039-4.6691l-.856-.869c.4409-.8431,1.725-.83,2.5809-.83-.8689,1.271.83,2.153,1.2581,3.009,3.4629-3.8131,5.6418-7.6521,11.2188-8.8842,6.861-1.6472,10.7779-6.7573,18.482-6.68.856-.843.869-2.127,2.153-1.686l.8171,3.852c3.009-.83,6.433-1.2192,9.4549-2.9052l.0389-3.852c3.022-3.3981,9.8051,3.9428,9.027-3.7742,3.4369-.3891,6.848.0648,9.4549-2.4773l2.1141,2.5939c2.6458-7.6911,10.35-8.0412,17.2368-10.5444,8.9621,2.6588,16.7569-5.4084,25.2781-1.4786,1.2969-.843.8819-2.555.8949-3.839-2.568-.0259,1.7509-3.411,1.7639-5.5511l3.8649-2.1011c2.1012,4.7339,6.8481.0648,10.6741,3.9558,2.555.454,4.708-.3891,6.861-2.0752-2.1141-3.022-3.839-1.3359-6.8351-1.79.96-10.7,14.15-1.5823,19.3379-7.5224,6.3552,6.0569,6.0829-8.5082,12.438-2.0233,5.577.9079,1.3488-5.123,6.8869-3.7872,3.0609-5.966,15.4082,2.2827,16.342-7.12,5.123,2.62,11.5819-1.6083,15.447-1.9974-.0259,2.568-5.162.8041-3.4759,4.6821,1.699,1.297,4.28.467,6.4071,1.3488,2.153-2.127-1.673-4.3059,2.1789-5.979l-.83-.856c2.1271.869,2.153-1.2711,3.45-2.1141,5.6029-2.9441,14.591-3.7094,20.6219-5.3695,11.5042,4.8247,9.0658-8.91,20.1679-4.9415,6.887-3.3592,15.4471-2.8533,22.3469-6.2124,2.1012,3.878,5.577-.8041,6.861-1.2192,12.438-3.3073,26.1471-4.0336,38.611-6.9129l.856-2.14c3.424.467,6.4071,2.1919,10.2591,1.8158,3.5408-11.53,11.9841,2.6847,16.77-6.2644,25.278-2.3346,49.324-6.8092,75.8731-6.9908,1.751-1.66,8.21-2.8793,8.158.9727Z"/><path class="cls-1" d="M1224.5349,162.0715c-.013,1.284-.467,3.852-2.6069,2.97l.0259-2.996,2.581.0259Zm13.5015,22.3988c-1.284-.0129-.4021-2.5809-.8172-3.8649C1243.2372,176.8052,1237.2063,181.8894,1238.0364,184.47Zm-21.0111,1.9324c-1.2969.415-3.0219,2.97-4.293.8172C1213.1732,186.7919,1216.2082,182.9658,1217.0253,186.4027Zm-40.0246,20.6091-1.7121-.013.9208-5.979c1.2581,2.14.3891,2.983.7912,5.992Zm-6.459,2.9311c-.882,2.9961-3.891,3.8131-6.044,5.5122-2.14-.882-3.009.8171-4.7209,1.2321-.8561-.4409-1.2711-1.725-2.1271-1.31,5.1361-.3631,7.7948-9.3382,12.892-5.4343Zm-64.94,30.22c-.0129.856.8172,2.568-.8819,2.9831-.415-1.284-.8172-3.852-3.8261-3.035C1101.75,238.84,1106.0561,235.8825,1105.6021,240.1625Z"/><path class="cls-2" d="M1396.6437,64.0979a19.6752,19.6752,0,0,0,.0877-39.35h-.0618a19.6752,19.6752,0,0,0-.0259,39.35Z"/><path class="cls-1" d="M1450.105,138.8946,1196.3775,394.7232l29.9472-109.53-26.7436,14.3056-34.59,128.8676-10.7519,39.2854,28.6761-28.9227L1505.7842,112.488l-55.6792,26.4065ZM37.2567,194.7294h120.23c72.2156,0,131.7079,57.9878,131.7079,132.46A131.8,131.8,0,0,1,157.4864,459.6757H37.2566V194.7294Zm67.5724,198.0484h33.9678c43.3709,0,80.4385-20.1421,80.4385-66.3663,0-42.476-32.9821-66.3922-79.6992-66.3922H104.8291V392.7778ZM759.4261,413.62l-16.705,46.0557H674.7984L771.54,194.7294h67.2483l97.7012,264.9464h-73.798l-15.59-46.0557H759.4261Zm44.4215-120.6577h-.5448L781.1375,355.23h44.603ZM626.1488,315.18H493.17v59.6349h53.2409a74.0184,74.0184,0,1,1-5.3565-98.6351l45.3034-45.3164a138.1063,138.1063,0,1,0,40.44,97.6494c0-4.4876-.2335-8.9492-.6485-13.3329Z"/></svg>