<svg id="Calque_1" data-name="Calque 1" xmlns="http://www.w3.org/2000/svg" viewBox="0 0 1561.937 500.0316"><defs><style>.cls-1{fill:#2d509f;}.cls-1,.cls-2{fill-rule:evenodd;}.cls-2{fill:#d7712c;}</style></defs><title>Plan de travail 1dga</title><path class="cls-1" d="M1554.809,81.8237a66.2534,66.2534,0,0,0-33.9159,8.2359c-1.3488,6.835-11.6079,5.0322-17.6259,7.5484-11.9841,1.1672-21.893,6.6405-33.89,6.5237-3.878,4.2542-10.3109,3.7613-15.447,5.8494-7.8078,7.2111-21.024,1.5174-27.9369,8.3006-13.2681,2.01-26.1729,4.4616-37.768,10.3369a4.5135,4.5135,0,0,1-3.826-3.891c-6.005-.48-9.883,3.7612-15.045,5.4214.428-.8561-.402-1.297-.402-1.7251-3.878,1.2581-7.315,4.6432-11.6079,3.32l-2.5551-.0259v-.856c-2.555-1.738-5.979-.4929-7.73,2.0752-1.2711-.869-.3762-5.1361-3.8-4.7469-3.0608,5.9661-8.21,5.9142-9.9607,11.4653l.83.869-3.424-.0389c0-1.284-1.2711-2.153-2.1271-3.009-3.852.8171-7.289,3.3592-10.739,4.6043-1.725.83.402,1.7121-.882,2.9831l-.856-.013c-1.699-2.1529,4.76-5.9531-1.2192-6.0049-4.3319,3.3851-1.3488,6.4071-7.3409,6.77-.4279.428-3.424-.454-4.306,2.1012a1.2946,1.2946,0,0,0,.4021,1.725c-2.9831-.454-7.7041-.5059-7.7559,3.7742l-.026,2.996c-.402,0-.856.415-1.2969.8431-.83-2.153-.7911-5.577-3.8-6.4719a12.5815,12.5815,0,0,0-6.887,6.3551c-2.1529-.4539.454-4.708-2.5291-4.7339-3.878,1.6731.8041,3.865-1.3488,5.9791-3.878,1.673-9.0658,6.7572-12.425,1.5952-2.5939,2.1141-4.708-.48-6.848-.9208-.4021-3.009,2.1659-2.555,3.0479-5.11l-2.5421-2.594c-3.1127,11.9581-19.74,4.5265-19.4417,17.8075-3.437.3891-2.0752-6.446-6.8091-3.9169-.441,1.284-2.1789,3.8391-4.734,2.9571l-2.14-.0129c0-.8561.013-2.153.882-2.568-.8431-1.297-2.568-.454-3.852-.467-1.7769,7.263-12.036,4.1633-16.3679,9.6884-2.1918,6.4072,4.6173,9.468-3.1127,12.3862-2.996.83-4.695-1.3229-6.394-3.0479-2.62,5.9661-7.289.7911-11.5561-.1168v-.856c-1.284-.856-3.8649.83-6.0049,1.2321-.467,3.4241-1.764,4.6951-5.603,3.8.428-.428-.4279-.8561-.415-1.284-6.4589,2.9441-12.0878,9.7273-21.0629,7.51-.869,2.1271-4.293,1.2451-3.9039,4.6691,1.271,1.297,3.852.467,5.564.48l-.0648,7.276c-1.712-.0129-2.153,1.2711-3.45,2.1141,0,1.284,1.699,2.153-.026,2.9961l-2.14-.0259c.4409-.8561-.843-1.7251-1.699-1.31-1.699-.8689-3.424.4021-3.878,2.1141l1.699,1.7251c-.4409.415-2.153.83-1.738,2.127-.4279,0-1.712-.0129-2.14-.8819.4409-1.284,3.022-3.3981.0389-4.708-3.891,3.3851-8.1839,5.4861-10.8038,10.1813-4.721-.0389-9.9219,6.3292-13.307,2.8793l.0259-2.14,4.721-.8171c1.738-2.555.9338-7.7041-2.0752-7.73-1.284-.013-2.555-.8819-3.437.8172-.0389,3.424-6.0179,2.5161-9.0269,3.7742-3.035,3.826-10.298,2.0491-14.189,5.8623l6.3681,5.6289c.428-.428-4.3189,2.9571-1.7639,5.123l.856.856c-.4409,1.297-2.1529.4021-3.009.83l.013-1.725c-8.145-.0778-9.0918,10.2073-18.0928,10.5314,0-.856.467-2.9831-1.2581-3.009l-2.5679-.0259-.48,5.577c-4.2541-3.4759-6.8739,2.9441-11.569.7392-3.0479,5.1231-6.4848,5.5252-11.2317,9.7533l.843.856c-7.302,2.5032-13.3459,7.6-21.5038,9.65-4.7859,8.08-17.2109,8.8194-21.1407,16.9255-5.564-.9079-6.8869,3.8-11.6209,5.0453-5.175,4.6561-12.918,7.1463-18.495,9.2474-7.6132-9.4939-12.2434-18.1059-18.1447-28.8837,2.153-.83-.83-2.1529-.8171-2.9831,1.712,0,2.1659-2.555,3.0219-2.983,16.3679-9.2475,30.1547-18.5468,48.1957-24.7983a58.2614,58.2614,0,0,1,26.2509-13.0216,2.2058,2.2058,0,0,0,.83,1.7121,4.6549,4.6549,0,0,0,3.878-1.6731c.869-1.699-2.5421-2.5939.0259-3.852,1.284.869,1.686,3.009,3.8261,2.1789,1.7379-2.555,1.7768-6.835,6.9128-5.9272.856-.415.869-1.712.882-2.14,6.381,4.7728,8.1838-5.4861,9.8829-3.7612-.4409.4279-1.725.843-1.31,2.127,3.4111,1.751,6.861-.7911,9.87-2.0491,1.738-3.4111,6.8869-4.2152,9.481-7.1853,2.97,3.022,6.4589-2.9441,8.988.0778a3.2591,3.2591,0,0,0,3.865-1.2451c-.8561-.869-1.2581-3.865.8949-3.8391,5.9661,3.0479,8.6508-9.7662,12.4121.9727.8949-3.424,6.0179-1.66,6.9128-5.4992,7.2371,4.7859,5.2527-12.8011,10.726-2.0492,2.9961.0259,3.022-2.97,3.904-4.6691l-.8561-.869c.441-.8431,1.7251-.83,2.581-.83-.869,1.271.83,2.153,1.2581,3.009,3.4629-3.8131,5.6418-7.6521,11.2188-8.8842,6.861-1.6472,10.7779-6.7573,18.4819-6.68.8561-.843.869-2.127,2.153-1.686l.8172,3.852c3.009-.83,6.433-1.2192,9.4549-2.9052l.0389-3.852c3.0219-3.3981,9.8051,3.9428,9.0269-3.7742,3.437-.3891,6.848.0648,9.4549-2.4773l2.1141,2.5939c2.6459-7.6911,10.35-8.0412,17.2369-10.5444,8.9621,2.6588,16.7569-5.4084,25.278-1.4785,1.297-.8431.882-2.5551.8949-3.8391-2.568-.0259,1.751-3.411,1.7639-5.551l3.865-2.1012c2.1011,4.734,6.848.0648,10.6741,3.9558,2.555.454,4.708-.3891,6.861-2.0752-2.1141-3.022-3.8391-1.3359-6.8351-1.79.96-10.7,14.15-1.5824,19.3379-7.5225,6.3551,6.0569,6.0828-8.5082,12.438-2.0233,5.577.9079,1.3488-5.123,6.8869-3.7872,3.0609-5.966,15.4081,2.2828,16.3419-7.12,5.123,2.62,11.582-1.6083,15.447-1.9973-.0259,2.5679-5.162.804-3.4758,4.682,1.699,1.297,4.28.467,6.4071,1.3489,2.153-2.1271-1.6731-4.306,2.1789-5.9791l-.83-.856c2.127.869,2.153-1.2711,3.45-2.1141,5.603-2.9441,14.591-3.7094,20.6219-5.37,11.5042,4.8248,9.0658-8.91,20.168-4.9415,6.8869-3.3592,15.447-2.8533,22.3469-6.2124,2.1011,3.878,5.577-.8041,6.861-1.2192,12.438-3.3073,26.147-4.0336,38.6109-6.9129l.8561-2.14c3.424.467,6.4071,2.1919,10.2591,1.8158,3.5407-11.53,11.9841,2.6847,16.77-6.2644,25.278-2.3346,49.324-6.8092,75.8731-6.9908,1.7509-1.66,8.21-2.8792,8.1579.9727Z"/><path class="cls-1" d="M1233.82,149.02c-.013,1.284-.467,3.852-2.6069,2.97l.026-2.996,2.5809.0259Zm13.5015,22.3988c-1.284-.0129-.402-2.5809-.8171-3.8649C1252.5226,163.7539,1246.4917,168.838,1247.3218,171.4189Zm-21.011,1.9325c-1.297.415-3.022,2.97-4.293.8171C1222.4587,173.7405,1225.4936,169.9144,1226.3108,173.3514Zm-40.0247,20.609-1.7121-.013.9209-5.979c1.2581,2.14.3891,2.9831.7911,5.992Zm-6.459,2.9311c-.8819,2.9961-3.8909,3.8131-6.0439,5.5122-2.14-.882-3.009.8171-4.721,1.2321-.856-.4409-1.271-1.725-2.127-1.31,5.136-.3631,7.7948-9.3382,12.8919-5.4343Zm-64.9395,30.22c-.013.856.8171,2.568-.882,2.9831-.415-1.284-.8171-3.852-3.826-3.035C1111.0356,225.7882,1115.3416,222.8311,1114.8876,227.1111Z"/><path class="cls-2" d="M1405.9291,51.0465a19.6752,19.6752,0,1,0,.0877-39.35h-.0617a19.6752,19.6752,0,0,0-.026,39.35Z"/><path class="cls-1" d="M1459.39,125.8432,1205.663,381.6718l29.9471-109.53-26.7436,14.3056-34.59,128.8676-10.752,39.2854L1192.2,425.6781,1515.07,99.4366,1459.39,125.8431ZM46.5421,181.678h120.23c72.2157,0,131.708,57.9878,131.708,132.46a131.8,131.8,0,0,1-131.708,132.4861H46.5421V181.678Zm67.5725,198.0484h33.9678c43.3709,0,80.4385-20.1421,80.4385-66.3663,0-42.476-32.9821-66.3922-79.6992-66.3922H114.1146V379.7264Zm654.597,20.8423-16.7051,46.0557H684.0839L780.8254,181.678h67.2482l97.7012,264.9464h-73.798l-15.59-46.0557H768.7116ZM813.133,279.911h-.5447L790.423,342.1789h44.603ZM635.4343,302.1282H502.4553v59.6349h53.2409A74.0184,74.0184,0,1,1,550.34,263.128l45.3034-45.3164a138.1063,138.1063,0,1,0,40.44,97.6494c0-4.4876-.2334-8.9492-.6484-13.3329Z"/></svg>