<?xml version="1.0" encoding="utf-8"?>
<!-- Generator: Adobe Illustrator 24.0.1, SVG Export Plug-In . SVG Version: 6.00 Build 0)  -->
<svg version="1.1" id="Calque_1" xmlns="http://www.w3.org/2000/svg" xmlns:xlink="http://www.w3.org/1999/xlink" x="0px" y="0px"
	 viewBox="0 0 1920 1080" style="enable-background:new 0 0 1920 1080;" xml:space="preserve">
<style type="text/css">
	.st0{fill:url(#SVGID_1_);}
	.st1{fill:#D0EDF8;}
	.st2{fill:#D9F0F9;}
	.st3{fill:#DEF2FA;}
	.st4{fill:#FEFEFE;}
	.st5{fill:#CCCCCC;}
	.st6{fill:#C9C9C9;}
	.st7{fill:#BCD6DF;}
	.st8{fill:#BCD7E1;}
	.st9{fill:#ECF2F3;}
</style>
<title>Plan de travail 1</title>
<g id="Calque_2_1_">
	
		<linearGradient id="SVGID_1_" gradientUnits="userSpaceOnUse" x1="1469.0065" y1="1311.0118" x2="451.82" y2="-450.8067" gradientTransform="matrix(1 0 0 1 0 62)">
		<stop  offset="0.1863" style="stop-color:#D0EDF8"/>
		<stop  offset="0.7806" style="stop-color:#FFFFFF"/>
	</linearGradient>
	<rect x="10.5" y="-6" class="st0" width="1984" height="1142"/>
</g>
<g id="Calque_1_1_">
	<path class="st1" d="M92.6,542.7l0-3.1c-0.9-0.2-1.8-0.1-2.6,0.3c-1.3,0.7-2,1.5-1.9,2.3c0.7,3.9-1.4,7.7-1.8,11.6
		c-1.1,8.6-2.4,17.1-4.3,25.7c-0.7,3.4-1.2,6.7-1.7,10.1c-1.8,11.7-4.4,23.5-6,35.2c-1.5,10.7-3.5,21.4-5.3,32.2
		c-1.8,10.5-3.6,21-5.6,31.5c-1.4,7.3-2.5,14.7-3.8,22c-1.3,7.4-1.9,14.9-4.1,22.3c-0.9,3.4-1.4,6.9-1.6,10.4
		c-1.1,10.7-3.5,21.4-5.3,32.1c-1.7,10.5-3.6,21-5.5,31.5c-1.4,7.5-2.4,15.1-3.8,22.7c-1.9,10.7-3,21.4-5.7,32.1
		c-0.9,3.7-1.1,7.4-1.7,11c-1.8,12.2-4.3,24.3-6.1,36.4c-1.1,7.8-2.5,15.5-3.7,23.3c-1.2,7.2-2.3,14.5-4,21.7
		c-1.6,6.8-2.5,13.7-3.4,20.5c-1.1,8.4-2.9,16.7-4.4,25.1c-0.5,2.7,0.5,5.5-1,7.6c0.9-7.4,2.1-15.4,3.8-23.5
		c2.3-10.7,3-21.4,5.9-32.1c0.8-3,1.3-6.1,1.5-9.2c0.9-10.9,3.5-21.8,5.3-32.8c1.7-10.5,3.2-21,5.5-31.5c1-4.7,1.4-9.4,2.2-14.1
		c1.3-7.9,1.9-15.7,4.2-23.6c1-3.6,1-7.1,1.6-10.7c2.1-11.8,4.4-23.7,6.2-35.5c1.2-7.8,2.4-15.5,3.7-23.3
		c1.7-10.4,3.5-20.8,5.5-31.2c1.3-6.9,2.4-13.9,3.6-20.8c1.4-8.1,2.4-16.1,4.4-24.2c0.8-3.3,1.3-6.7,1.6-10.1
		c1.6-13.8,4.8-27.6,6.7-41.4c1.3-9.2,3-18.4,4.6-27.5c2.1-11.9,4.3-23.9,6.2-35.8c1.6-9.7,3.2-19.4,4.9-29.1
		c0.8-4.3,0.8-8.8,2.9-13.1c1.7-3.7,0.2-7.5,0.6-11.3c0.1-2.5,0.7-5,1.6-7.3c1.4-2.1,0.7-4.2,0.5-6.3c-1.8-5.1-0.9-10.2-1.5-15.4
		c-1.2-9.8-2.5-19.7-3.8-29.5c-1.8-12.9-3.4-25.8-5.5-38.7c-1.4-8.5-2.3-17-3.5-25.5c-1.4-10.3-2.9-20.7-4.2-31
		c-1.1-8.7-2.5-17.4-3.6-26.1c-1.3-10.1-2.7-20.3-4.2-30.4c-1.3-8.5-2.5-17-3.5-25.5c-1.3-10.2-3-20.5-4.3-30.7
		c-1.1-8.9-2.5-17.8-3.6-26.7c-1.3-10.1-2.8-20.3-4.2-30.4c-1.2-8.7-2.3-17.4-3.5-26.1c-1.5-10.4-2.7-20.9-4.3-31.3
		c-1.3-8.8-2.2-17.6-3.5-26.4c-1.6-10.7-2.7-21.5-4.3-32.2c-1.3-8.9-2.2-17.8-3.6-26.7c-0.2-1.5,0.4-3.1-2.5-4.4
		c-7.3,0-14.6,0.1-21.8,0c-2.7,0-3.7,0.2-3.2,1.3c0.1,0.5,0.1,1,0,1.5c0,358.1,0,716.2-0.1,1074.3c0,2.3,1.3,3,7.2,2.8
		c8-0.2,16.1-0.1,24.2-0.1c4.2-3.3,3.7-7,3.8-10.5c0.3-14.7,2.6-29.3,3.7-44c1.2-16.7,3.4-33.4,4.7-50.1c0.8-10.6,2-21.1,3-31.7
		c1.7-16.3,3.2-32.6,4.7-48.9c1-10.7,1.9-21.3,3.1-32c1.7-16.4,3.2-32.8,4.7-49.2c1-10.8,2-21.5,3.1-32.3
		c1.7-16.2,3.2-32.4,4.7-48.6c0.9-10.6,2-21.1,3.1-31.7c1.7-16.3,3.3-32.6,4.7-48.9c0.9-10.8,2-21.5,3.1-32.3
		c1.7-16.7,3.1-33.4,4.7-50.1c1.6-16.6,2.9-33.2,4.8-49.8c1.1-9.1,0.4-18.2,1.9-27.3C93,546.7,91.1,544.7,92.6,542.7z"/>
	<path class="st2" d="M92.6,542.7c-3,3.4-1.7,7-2.6,10.5c-1.6,6.6,0.5,13.2-1.4,19.8c-0.2,0.6-0.7,1.2-0.6,1.8c1.1,9-1.4,18-1.9,27
		c-0.6,12-2.2,23.9-3.1,35.9c-0.9,10.6-2.1,21.2-3.1,31.9c-1,11.3-2,22.7-3.1,34c-1,10.5-2.1,21-3.1,31.6c-1,11-2.1,22.1-3.1,33.1
		c-1,10.3-2.1,20.6-3.1,30.9c-1,11-2.1,22.1-3.1,33.1c-1,10.5-2.1,21-3.1,31.6c-1,11.2-2.1,22.5-3.1,33.7c-1,10.6-2.1,21.2-3.1,31.9
		c-1,10.9-2.1,21.9-3.1,32.8c-1,10.4-2,20.8-3.1,31.2c-1.1,11.1-2,22.3-3.2,33.4c-1.1,10.6-1.8,21.2-3,31.9
		c-1.3,11.3-2.1,22.7-3.2,34c-1.1,11.1-2.5,22.3-3.1,33.4c-0.2,3.2-1.3,6.5-1.3,9.8h129.5c2.5-1.1,2.3-2.5,2.4-3.8
		c0.2-11-2.4-21.9-4.1-32.8c-1.6-10.3-3.6-20.6-5.4-30.9c-1.7-9.8-2.2-19.6-4.2-29.4c-0.8-4-0.2-8-0.3-12
		c-0.2-6.1-2.5-12.2-1.6-18.1c1.6,1.1,3.5,1.7,5.4,1.4c-0.7-11.2-2.2-22.3-4.5-33.3c-0.8-4-0.7-8-1.4-11.9
		c-1.8-10.1-1.9-20.2-3.5-30.3c-1.8-11.4-3.6-22.8-4.8-34.2c-0.8-7.2-2-14.5-3.1-21.7c-1.7-11.4-3.2-22.8-4.7-34.3
		c-1-7.5-2.1-15.1-3.1-22.6c-1.6-11.3-3.1-22.6-4.7-33.9c-1.6-11.3-3.2-22.6-4.7-33.9c-1-7.7-2-15.5-3.1-23.2
		c-1.7-11.7-3.3-23.4-4.7-35.2c-1.4-11.3-3.2-22.6-4.6-33.9c-1.5-11.6-3.3-23.2-4.7-34.9c-1.4-11.8-3.3-23.6-4.7-35.5
		c-0.9-7.3-1.8-14.7-3.2-22C95.4,560.4,95.7,551.5,92.6,542.7z"/>
	<path class="st3" d="M28.6,56.1c1.1,10.4,1.7,20.8,3.3,31.2c1.2,7.5,2.1,15.1,3.1,22.6c1.6,11.9,3.3,23.9,4.7,35.8
		c0.9,7.5,1.9,15.1,3.1,22.6c1.8,11.5,3.2,23,4.7,34.6c1,7.4,1.8,14.9,3,22.3c1.9,11.6,3.4,23.2,4.8,34.9c0.8,7.2,2.1,14.5,3.1,21.7
		c1.6,11.4,3.2,22.8,4.7,34.3c1,7.5,2.1,15.1,3.1,22.6c1.5,11.3,3.2,22.6,4.7,33.9s3,22.6,4.7,33.9c1.6,11.2,3.1,22.4,4.7,33.6
		c1.7,11.6,3.4,23.2,4.7,34.9c0.9,7.6,2.1,15.3,3.2,22.9c0.7,4.5,1,9,1.2,13.5c0,0.6,0.2,1.2,1.6,1.6c3.4-0.8,2.8-2.2,2.8-3.3
		c-0.1-4.9,2.5-9.7,1.8-14.6c1.4-5.4-0.6-10.8,1.8-16.1c0.8-3.2,0.1-6.4,0.5-9.5c1.5-14.6,2.6-29.3,4.7-43.9
		c0.8-5.8,1-11.7,1.3-17.5c0.5-8.8,1.4-17.6,2.3-26.4c1.4-13.4,1.6-26.9,4.1-40.3c1-5.7,1.1-11.5,1.4-17.2c0.5-8.5,1.4-17,2.3-25.5
		c1.5-13.1,1.6-26.2,4.1-39.3c1.1-5.7,1-11.5,1.4-17.2c0.6-8.4,1.4-16.8,2.3-25.2c1.4-13.5,1.8-27.1,4.1-40.6
		c0.8-5.6,1.2-11.2,1.4-16.9c0.5-8.9,1.4-17.8,2.3-26.8c1.4-13.8,2.3-27.7,3.9-41.5c0.9-8.1,2.1-16.2,2.1-24.3
		c0-2.5-0.2-4.9,0.8-7.4c0.5-1.2,0.5-2.5-1.8-3.5L28.6,56.1z"/>
	<path class="st1" d="M156.6,1010.3c-4.9-1-4-3.4-7.9-5.4c1,6-1.5,11.4,1.5,16.9c0.3,0.9,0.4,1.9,0.1,2.8c-1.1,9,1.2,18,1.8,27
		c0.6,9.7,2.6,19.4,4.6,29c1.8,9.1,3.2,18.1,4.8,27.2c1.6,9.4,3.2,18.8,2.9,28.2h472.9c-12-2.7-25.3-4.1-38-6.1
		c-59.7-9.5-117.7-20.4-174.2-32.6c-50.7-11-99.1-23.4-145.3-37.1c-17.8-5.3-34.9-10.9-51.4-16.8c-15.6-5.6-30-11.6-44.7-17.5
		c-8.6-3.5-16.5-7-23-11C158.4,1013.4,156.8,1011.9,156.6,1010.3z"/>
	<path class="st1" d="M1923.3,120.1c0-20.6-0.1-41.3,0.1-61.9c0-1.8-0.9-2.2-5.6-2.2c-63.2,0.1-126.4,0.1-189.6,0.1
		c-2.4,1.6,0.6,2.8,2.2,3.9c9.9,7.2,20.2,14.3,30.3,21.4c10.6,7.5,21.4,14.9,31.9,22.5c2.3,1,4.8,1.6,7.3,1.7
		c36.6,4.4,72.9,9.2,109.4,13.8C1913.7,119.9,1918.2,121.1,1923.3,120.1z"/>
	<path class="st4" d="M134.8,56.1c-1.9,11.7-2.4,23.5-3.4,35.2c-1,11-2.1,22.1-3.1,33.1c-1.1,12-2.1,23.9-3.2,35.9
		c-1,10.7-2.1,21.4-3.1,32.2c-1,11.2-2.1,22.5-3.1,33.7c-1,10.7-2.1,21.4-3.1,32.2c-1,11.4-2.1,22.9-3.2,34.3
		c-1,10.6-2,21.2-3.1,31.9c-1.1,11.1-2.1,22.3-3.1,33.4c-1,11-2.1,22.1-3.1,33.1c-1,11.5-2.1,23.1-3.1,34.6
		c-1,10.7-1.8,21.5-3.3,32.2c-0.9,7.2-0.6,14.3-1.2,21.5c-0.2,0.8,0.7,0.8,2.1,0.5c0.6-0.2,1-0.8,0.9-1.5c-0.3-2.2,0.3-4.4,1.5-6.3
		c2-11.6,3.9-23.3,5.9-34.9c1.8-10.4,3.5-20.8,5.1-31.2c1.8-11.4,3.9-22.9,5.8-34.3c1.9-11.7,3.9-23.5,6-35.2
		c1.9-10.9,3.7-21.9,5.6-32.8c2.3-13.2,4.6-26.3,6.8-39.5c1.8-10.7,3.6-21.4,5.5-32.2c2.1-11.7,4-23.5,6.1-35.2
		c2.9-16.2,5.7-32.5,8.4-48.7c2.4-14.8,5-29.6,7.4-44.4c1.6-9.9,3.4-19.8,5-29.7c0.9-5.9,2.2-11.8,2.7-17.8L134.8,56.1z"/>
	<path class="st3" d="M1793.8,103.5c-8.7-7.4-20.1-14.2-29.7-21.4c-11.7-8.7-25.9-16.9-35.8-26.1h-160.8c-0.5,1.7,3,2,5.5,2.5
		c41.8,8.7,83.3,17.7,125.2,26.3c23.3,4.8,46.1,9.9,69.4,14.6c1.8,0.4,5.6,0.4,4.2,2C1778.7,103,1785.5,104.5,1793.8,103.5z"/>
	<path class="st2" d="M1806.3,109.6c11.9,8.4,23.8,16.7,35.7,25.1c21.2,14.9,42.3,29.9,63.9,44.8c5.6,3.9,9.5,8.2,17.4,11.5v-57.9
		c-3.4-2.2-9.6-2.7-14.7-3.8c-30.4-6.4-61.1-12.6-91.6-18.9C1813.8,109.7,1810.5,108.4,1806.3,109.6z"/>
	<path class="st5" d="M97.3,478.7l0,1.2c-3.2,3.7-0.8,7.5-2.3,11.2c-0.6,1.4,0.8,2.9-0.8,4.2c0.1,6.1-0.9,12.1-3.1,17.8
		c0,2-0.1,4.1-0.1,6.1c-1.1,1.2-1.1,3.2,0.1,4.4c2.9-1.8,2.4-4,2.8-5.9c1.6-7.7,2.1-15.5,3.5-23.2c1.8-10.2,4.1-20.3,6-30.5
		c0.6-3.4,0.7-6.7,1.5-10.1c1.8-8.1,1.9-16.3,3.5-24.5c1.9-9.6,3.1-19.1,4.8-28.7c1.6-9.2,3.1-18.3,4.7-27.5
		c1.6-9.4,3.2-18.7,4.7-28.1c1.4-8.9,3.1-17.7,4.6-26.6c2.1-12.3,4.4-24.6,6.3-36.9c1.4-8.9,3.1-17.7,4.6-26.6
		c2.1-12.3,4.3-24.6,6.3-37c1.4-8.9,3-17.7,4.6-26.6c2.3-12.2,4.3-24.4,6.2-36.7c1.4-9,3.2-17.9,4.7-26.9
		c2.1-12.6,4.3-25.2,6.3-37.9c1.6-9.7,3.3-19.3,4.4-29c0.2-1.7,2.4-3.4,1.6-5.1h-1.6c-3.4,3.2-1.7,6.7-2.7,10
		c-2.2,7.6-2.3,15.3-3.6,23c-1.8,10.7-4,21.4-5.9,32.1c-1.2,6.8-2.3,13.7-3.3,20.5c-1.7,11.9-3.6,23.9-6.1,35.8
		c-1.5,7.3-2.1,14.7-3.4,22c-1.9,10.9-4.1,21.8-6,32.7c-1.2,6.9-2.1,13.9-3.3,20.8c-2,11.3-4.3,22.6-6,33.9
		c-0.9,6.3-2.2,12.6-3.3,19c-1.9,11.6-3.5,23.2-6.1,34.8c-1.7,7.4-2.1,14.9-3.4,22.3c-1.9,10.6-4.3,21.2-5.9,31.8
		c-0.6,3.7-1.1,7.3-1.7,11c-1.8,10.9-3.2,21.8-5,32.8c-1.9,11.3-4.1,22.6-6.1,33.9C96.8,474.5,99.5,476.7,97.3,478.7z"/>
	<path class="st6" d="M1772,101c-17.8-2.2-35.6-4.3-53.3-6.5c-48.3-6.1-96.6-12.2-144.9-18.3c-46-5.9-92.1-11.8-138-17.7
		c-5.6-0.7-11.8-0.7-16.5-2.5h-14c4.7,2,11.5,2.2,17.4,2.9c33.8,4.4,68,8.3,101.8,12.7c43.6,5.7,87.3,11.2,131.2,16.6
		c34.5,4.3,68.8,8.8,103.2,13.2c13.2,1.7,26.5,3.3,39.8,4.9c1.2-0.5,2.7-0.9,1.5-1.7c-2.1,0-4.2-0.4-6.2-1.2
		C1786.5,103.1,1779.2,102.2,1772,101z"/>
	<path class="st1" d="M1806.3,109.6c10,0.6,17.9,3.1,26.5,4.8c30.3,6.1,60.3,12.4,90.5,18.6v-10.5c-9.5-2.4-20.7-3.3-31.2-4.6
		c-26.7-3.4-53.4-6.8-80.1-10.2c-2.9-0.4-5.6-1.2-8.9-0.6C1803,108.3,1805.4,108.8,1806.3,109.6z"/>
	<path class="st7" d="M1803.1,107.2c27.5,4.3,55.9,7.4,84,11c12,1.5,23.7,3.5,36.3,4.4v-2.5c-33.2-4.2-66.4-8.4-99.6-12.6
		c-7.9-1-15.8-1.9-23.7-2.8c-0.5,0.6-1,1.1-1.5,1.7C1800,106.7,1801.5,106.9,1803.1,107.2z"/>
	<path class="st8" d="M91.1,523.6c0-1.5-0.1-2.9-0.1-4.4c-2.1,0.7-1.4,1.7-1.5,2.6c-1.1,12.8-3.7,25.5-6.1,38.2
		c-1.4,7.5-2,15.1-3.3,22.6c-1.9,10.7-4.2,21.4-6.1,32c-1.3,7.3-2,14.7-3.3,22c-1.9,10.7-4.1,21.4-6,32c-0.6,3.4-0.8,6.7-1.5,10.1
		c-2.2,10.7-3,21.4-5.1,32.1c-1.8,9.1-3.1,18.1-4.7,27.2c-1.6,9.2-3.1,18.3-4.7,27.5c-2.2,12.4-4.3,24.8-6.3,37.3
		c-1.4,8.9-3.1,17.7-4.6,26.6c-2.3,12.7-4.4,25.5-6.3,38.2c-1.4,9.1-3.1,18.1-4.6,27.2c-2.1,12.6-4.3,25.3-6.3,37.9
		c-1.9,11.9-4.5,23.8-6.2,35.7c-1.3,9-3,17.9-4.9,26.9c-0.9,4,0.3,8.2-2.4,12.2c-0.9,1.3-0.1,2.7-0.1,4.1l2.1,0.1
		c0.8-1.6,2.1-3.2,2.4-4.8c1.2-6.3,2.2-12.6,3.2-18.9c2-11.9,4.2-23.8,6.1-35.7c1.2-7.5,2-15.1,3.3-22.6c1.8-10.5,4.1-20.9,6-31.4
		c0.6-3.5,0.6-6.9,1.4-10.4c1.9-8,2-16.1,3.5-24.2c2.4-12.7,4.3-25.5,6.4-38.2c1.4-8.8,3.3-17.5,4.6-26.3
		c1.6-10.4,4.7-20.7,5.8-31.1c0.8-7.6,2.5-15.1,3.6-22.6c1.5-10.7,4.1-21.4,6-32c1.2-6.9,2-13.9,3.3-20.8c1.9-10.9,4.1-21.8,6-32.7
		c0.6-3.4,0.7-6.7,1.5-10.1C73.9,642,74,634,75.6,626c2.4-12.1,4.3-24.2,6.4-36.3c1.6-9.1,2.7-18.1,4.6-27.2
		c1.6-7.6,1.3-15.3,4.5-22.9c1.2-2.1,1.2-4.7,0.1-6.8C91.1,529.8,91.1,526.7,91.1,523.6z"/>
	<path class="st2" d="M91.2,532.8c0,2.3-0.1,4.5-0.1,6.8c0.5,0,1,0,1.5,0C91.9,537.4,94.3,535,91.2,532.8z"/>
	<path class="st9" d="M94.2,495.3c2.8-5.1,3.2-10.3,3.1-15.4l-1.6-0.6c-3.3,2.1-1.2,4.4-1.4,6.6C94.1,489,94,492.1,94.2,495.3z"/>
	<path class="st9" d="M97.3,478.7c2.9-2,0.9-4.1,1.5-6.2C95.8,474.4,97.9,476.6,97.3,478.7z"/>
</g>
</svg>
