<svg id="Calque_1" data-name="Calque 1" xmlns="http://www.w3.org/2000/svg" viewBox="0 0 186.795 187.649"><defs><style>.cls-1{fill:#fc5656;}</style></defs><title>Plan de travail 1</title><path class="cls-1" d="M159.852,26.953c-14.1-14.1-29.162-4.974-38.588,4.452L32.22,120.452c-9.426,9.425-19.292,23.746-4.452,38.584,14.84,14.843,29.161,4.975,38.585-4.451L155.399,65.54C164.825,56.113,173.951,41.051,159.852,26.953Z"/><path class="cls-1" d="M74.78,23.306,93.635,42.16l19.192-19.192c1.303-1.306,2.626-2.518,3.957-3.661C114.774,9.167,108.988,0,93.626,0,78.235,0,72.456,9.203,70.457,19.365,71.894,20.608,73.328,21.854,74.78,23.306Z"/><path class="cls-1" d="M112.816,163.359l-19.18-19.181L74.791,163.021c-1.431,1.432-2.855,2.74-4.273,3.969,2.161,10.337,8.277,19.805,23.11,19.805,14.872,0,20.98-9.519,23.127-19.889C115.436,165.771,114.116,164.658,112.816,163.359Z"/><path class="cls-1" d="M66.783,69.013H30.433C17.105,69.013,0,73.212,0,93.15c0,14.877,9.522,20.986,19.894,23.132C21.122,114.864,66.783,69.013,66.783,69.013Z"/><path class="cls-1" d="M167.435,69.981c-1.15,1.338-46.907,47.305-46.907,47.305h35.834c13.329,0,30.433-3.149,30.433-24.136C186.795,77.761,177.595,71.979,167.435,69.981Z"/><path class="cls-1" d="M78.693,57.081l6.494-6.494L66.344,31.741c-9.427-9.425-23.746-19.292-38.586-4.452C16.876,38.171,19.293,48.762,25.065,57.36,26.823,57.23,78.693,57.081,78.693,57.081Z"/><path class="cls-1" d="M108.571,129.218l-6.511,6.511,19.194,19.192c9.426,9.427,24.488,18.551,38.586,4.453,10.52-10.521,8.106-21.571,2.29-30.423C160.258,129.086,108.571,129.218,108.571,129.218Z"/></svg>