<svg id="Calque_1" data-name="Calque 1" xmlns="http://www.w3.org/2000/svg" viewBox="0 0 118.3592 117.3212"><defs><style>.cls-1{fill:none;stroke-width:3px;}.cls-1,.cls-3,.cls-5{stroke:#183051;}.cls-1,.cls-3,.cls-4,.cls-5{stroke-miterlimit:10;}.cls-2,.cls-3,.cls-4,.cls-5{fill:#fff;}.cls-3{stroke-width:3.8px;}.cls-4{stroke:#1d70b7;stroke-width:1.75px;}.cls-5{stroke-width:2.3px;}.cls-6{fill:#1b72b8;}</style></defs><title>I01_logo</title><circle class="cls-1" cx="59.4594" cy="55.0607" r="53.5565"/><path class="cls-2" d="M67.12,26.6267c5.8228,8.9164,7.595,18.7823,5.1341,25.8593,5.9015-4.6164,15.8106-6.1284,26.13-3.5,9.3066-13.0135,9.8242-28.5882,1.1561-34.7873s-23.24-.6749-32.5461,12.3386Z" transform="translate(-4.658 -8.4839)"/><path class="cls-2" d="M28.9885,49.4033c10.2793-2.7824,20.21-1.4192,26.18,3.1082-2.5668-7.0392-.9427-16.93,4.7458-25.9332C50.4137,13.7058,35.7612,8.4006,27.187,14.7288s-7.8233,21.8936,1.6774,34.7661Z" transform="translate(-4.658 -8.4839)"/><path class="cls-2" d="M38.8669,92.707c.53-10.636,4.8955-19.6594,11.0462-23.9382-7.4879.2658-16.3932-4.3353-23.1974-12.5274C11.5373,61.2993,1.9639,73.5953,5.3329,83.7053s18.4044,14.2059,33.5828,9.148Z" transform="translate(-4.658 -8.4839)"/><path class="cls-2" d="M83.1039,96.6936c-9.9517-3.7909-17.1845-10.7309-19.3532-17.9028C61.69,85.9943,54.5618,93.042,44.6681,96.9817c.12,15.9984,8.8557,28.9029,19.512,28.8231S83.378,112.6909,83.258,96.6925Z" transform="translate(-4.658 -8.4839)"/><path class="cls-2" d="M100.5653,55.8538c-6.6807,8.2931-15.5161,13.0273-23.0071,12.8737,6.2141,4.1861,10.7141,13.143,11.4037,23.77,15.2525,4.83,30.2249.5092,33.442-9.65s-6.54-22.3106-21.7921-27.14Z" transform="translate(-4.658 -8.4839)"/><path class="cls-3" d="M39.45,70.572a12.6986,12.6986,0,0,1,1.506-2.8126c5.7223-7.7634,15.9249-9.9559,22.7882-4.8971,2.69-8.0906-2.5476-17.1163-11.6993-20.16S21.9574,48.967,21.9574,48.967,30.9819,65.0784,39.45,70.572Z" transform="translate(-4.658 -8.4839)"/><path class="cls-3" d="M63.5692,88.35a12.7,12.7,0,0,1-2.21-2.3015c-5.6151-7.8412-4.5475-18.222,2.3846-23.1861-6.8633-5.0588-17.0659-2.8664-22.7882,4.897s-3.34,30.5507-3.34,30.5507S55.7277,94.7059,63.5692,88.35Z" transform="translate(-4.658 -8.4839)"/><path class="cls-3" d="M87.93,70.9049a12.7011,12.7011,0,0,1-2.8716,1.39c-9.1926,2.9172-18.7354-1.3059-21.3144-9.4328-6.9321,4.9641-8,15.3449-2.3846,23.1861S89.3829,98.6655,89.3829,98.6655,91.552,80.3266,87.93,70.9049Z" transform="translate(-4.658 -8.4839)"/><path class="cls-3" d="M78.867,42.3453a12.7031,12.7031,0,0,1,.4348,3.1607C79.2356,55.15,72.27,62.9209,63.7442,62.8623c2.579,8.1268,12.1217,12.35,21.3144,9.4328s20.6593-22.7529,20.6593-22.7529S88.9468,41.8123,78.867,42.3453Z" transform="translate(-4.658 -8.4839)"/><path class="cls-3" d="M48.9046,42.14a12.7008,12.7008,0,0,1,3.14.5631c9.1517,3.0432,14.39,12.069,11.6993,20.16,8.526.0586,15.4914-7.7121,15.5576-17.3563S64.0466,18.8268,64.0466,18.8268,51.5125,32.3884,48.9046,42.14Z" transform="translate(-4.658 -8.4839)"/><path class="cls-4" d="M60.0093,57.6727a3.327,3.327,0,0,1,.8229.1476,4.3356,4.3356,0,0,1,3.066,5.2831,4.3357,4.3357,0,0,0,4.0772-4.5485c.0173-2.5274-3.9979-6.9917-3.9979-6.9917S60.6927,55.1172,60.0093,57.6727Z" transform="translate(-4.658 -8.4839)"/><path class="cls-4" d="M57.5315,65.1239a3.3273,3.3273,0,0,1,.3947-.7371,4.3358,4.3358,0,0,1,5.972-1.2834,4.3356,4.3356,0,0,0-3.066-5.2831c-2.3983-.7976-7.8849,1.6416-7.8849,1.6416S55.3123,63.6842,57.5315,65.1239Z" transform="translate(-4.658 -8.4839)"/><path class="cls-4" d="M63.8524,69.7829a3.3279,3.3279,0,0,1-.5791-.6031,4.3359,4.3359,0,0,1,.6249-6.0764,4.3358,4.3358,0,0,0-5.972,1.2834c-1.5,2.0345-.8753,8.0063-.8753,8.0063S61.7974,71.4486,63.8524,69.7829Z" transform="translate(-4.658 -8.4839)"/><path class="cls-4" d="M70.2366,65.2111a3.3321,3.3321,0,0,1-.7525.3644,4.3358,4.3358,0,0,1-5.5859-2.4721,4.3359,4.3359,0,0,0-.6249,6.0764c1.4716,2.0549,7.344,3.3065,7.344,3.3065S71.1858,67.68,70.2366,65.2111Z" transform="translate(-4.658 -8.4839)"/><path class="cls-4" d="M67.8614,57.7266a3.3263,3.3263,0,0,1,.114.8283,4.3357,4.3357,0,0,1-4.0772,4.5485,4.3358,4.3358,0,0,0,5.5859,2.4721c2.4091-.7645,5.4141-5.9628,5.4141-5.9628S70.503,57.5869,67.8614,57.7266Z" transform="translate(-4.658 -8.4839)"/><path class="cls-5" d="M43.9283,78.313c-1.0411,4.9355-.3367,11.871-.3367,11.871s6.8858-1.3512,11.3036-3.7974" transform="translate(-4.658 -8.4839)"/><path class="cls-2" d="M40.5018,68.3576a27.6526,27.6526,0,0,0-1.55,3.3351" transform="translate(-4.658 -8.4839)"/><path class="cls-6" d="M40.6275,72.4963l-3.5032-1.0472c.6758-1.8123,1.55-3.5819,1.59-3.6542l3.5261,1.2315A24.3639,24.3639,0,0,0,40.6275,72.4963Z" transform="translate(-4.658 -8.4839)"/><path class="cls-3" d="M89.1446,75.32s-1.6461-7.0758-4.07-10.3345" transform="translate(-4.658 -8.4839)"/><path class="cls-3" d="M83.1044,42.5254s-7.2309-.7-11.0929.5554" transform="translate(-4.658 -8.4839)"/></svg>